<svg width="778" height="55" viewBox="0 0 778 55" fill="none" xmlns="http://www.w3.org/2000/svg">
<path d="M19.9863 31.618C19.9863 30.2469 19.8281 28.9109 19.5117 27.6102C19.1953 26.3094 18.7734 25.2195 18.2461 24.3406C17.7188 23.4969 17.0684 22.8641 16.2949 22.4422C15.5566 22.0203 14.8184 21.8094 14.0801 21.8094C13.377 21.8094 12.6562 22.0555 11.918 22.5477C11.2148 23.0399 10.5996 23.6902 10.0723 24.4988C9.50977 25.3777 9.07031 26.45 8.75391 27.7156C8.4375 28.9461 8.2793 30.2469 8.2793 31.618C8.2793 32.9891 8.41992 34.325 8.70117 35.6258C9.01758 36.9266 9.43945 38.0164 9.9668 38.8953C10.4941 39.7742 11.127 40.4246 11.8652 40.8465C12.6387 41.2332 13.377 41.4266 14.0801 41.4266C14.8184 41.4266 15.5742 41.2332 16.3477 40.8465C17.1211 40.4246 17.7539 39.7742 18.2461 38.8953C18.7734 38.0164 19.1953 36.9266 19.5117 35.6258C19.8281 34.325 19.9863 32.9891 19.9863 31.618ZM14.1328 46.2254C12.2695 46.2254 10.6172 45.909 9.17578 45.2762C7.73438 44.6434 6.53906 43.6766 5.58984 42.3758C4.67578 41.1453 3.95508 39.5809 3.42773 37.6824C2.90039 35.784 2.63672 33.6746 2.63672 31.3543V6.30548H8.22656V20.0692C9.87891 17.9598 11.9355 16.9051 14.3965 16.9051C16.2246 16.9051 17.8945 17.3094 19.4062 18.118C20.918 18.9266 22.1484 19.9988 23.0977 21.3348C23.9766 22.7059 24.627 24.2703 25.0488 26.0281C25.4707 27.7508 25.6816 29.5262 25.6816 31.3543C25.6816 33.6746 25.418 35.784 24.8906 37.6824C24.3984 39.5809 23.6777 41.1453 22.7285 42.3758C21.7793 43.6766 20.5664 44.6434 19.0898 45.2762C17.6484 45.909 15.9961 46.2254 14.1328 46.2254ZM35.5957 45.6453H29.8477V6.30548H35.5957V45.6453ZM47.3555 13.1082H40.8691V6.30548H47.3555V13.1082ZM47.0391 45.6453H41.291V17.5906H47.0391V45.6453ZM74.25 45.6453H68.6074V27.9266C68.6074 26.0281 68.2031 24.4813 67.3945 23.2859C66.7969 22.4422 65.7773 22.0203 64.3359 22.0203C63.1055 22.0203 61.9453 22.6356 60.8555 23.866C59.7656 25.0965 58.9746 26.9774 58.4824 29.5086C58.3418 30.1063 58.2363 30.7215 58.166 31.3543C58.1309 31.952 58.1133 32.6199 58.1133 33.3582V45.6453H52.5234V17.5906H58.1133V20.4383C58.7109 19.5594 59.5898 18.7508 60.75 18.0125C61.9102 17.2742 63.2109 16.9051 64.6523 16.9051C67.6406 16.9051 69.9609 17.7137 71.6133 19.3309C73.3711 21.1238 74.25 23.6727 74.25 26.9774V45.6453ZM78.2051 31.3543C78.2051 29.5262 78.4336 27.7684 78.8906 26.0809C79.3477 24.3582 80.0156 22.8113 80.8945 21.4402C81.8086 20.1043 83.0039 19.0145 84.4805 18.1707C85.9922 17.327 87.6621 16.9051 89.4902 16.9051C92.0566 16.9051 94.1133 17.9598 95.6602 20.0692V6.30548H101.25V45.6453H95.6602V43.2723C95.1328 43.9754 94.3418 44.6434 93.2871 45.2762C92.2324 45.909 90.8789 46.2254 89.2266 46.2254C87.6797 46.2254 86.2031 45.8914 84.7969 45.2234C83.3906 44.5203 82.2129 43.5359 81.2637 42.2703C80.3496 41.075 79.6113 39.5457 79.0488 37.6824C78.4863 35.784 78.2051 33.6746 78.2051 31.3543ZM83.9004 31.618C83.9004 32.9891 84.0586 34.3074 84.375 35.5731C84.7266 36.8035 85.1836 37.8758 85.7461 38.7899C86.2383 39.6688 86.8535 40.3367 87.5918 40.7938C88.3301 41.2156 89.0684 41.4266 89.8066 41.4266C90.5098 41.4266 91.2129 41.1981 91.916 40.741C92.6543 40.284 93.2871 39.616 93.8145 38.7371C94.377 37.8231 94.8164 36.7508 95.1328 35.5203C95.4492 34.2899 95.6074 32.9891 95.6074 31.618C95.6074 30.2469 95.4492 28.9461 95.1328 27.7156C94.8164 26.45 94.377 25.3777 93.8145 24.4988C93.2871 23.6902 92.6543 23.0399 91.916 22.5477C91.2129 22.0555 90.5098 21.8094 89.8066 21.8094C89.0684 21.8094 88.3301 22.0379 87.5918 22.4949C86.8887 22.952 86.2734 23.6024 85.7461 24.4461C85.1836 25.325 84.7266 26.3973 84.375 27.6629C84.0586 28.9285 83.9004 30.2469 83.9004 31.618Z" fill="white"/>
<rect x="107.4" y="7" width="104" height="39" rx="5" fill="#91A8D3"/>
<path d="M107.318 31.7543C107.318 29.9261 107.547 28.1683 108.004 26.4808C108.461 24.7582 109.129 23.2113 110.008 21.8402C110.922 20.5043 112.117 19.4144 113.594 18.5707C115.105 17.7269 116.775 17.3051 118.604 17.3051C121.17 17.3051 123.227 18.3597 124.773 20.4691V6.70544H130.363V46.0453H124.773V43.6722C124.246 44.3754 123.455 45.0433 122.4 45.6761C121.346 46.309 119.992 46.6254 118.34 46.6254C116.793 46.6254 115.316 46.2914 113.91 45.6234C112.504 44.9203 111.326 43.9359 110.377 42.6703C109.463 41.475 108.725 39.9457 108.162 38.0824C107.6 36.184 107.318 34.0746 107.318 31.7543ZM113.014 32.0179C113.014 33.389 113.172 34.7074 113.488 35.973C113.84 37.2035 114.297 38.2758 114.859 39.1898C115.352 40.0687 115.967 40.7367 116.705 41.1937C117.443 41.6156 118.182 41.8265 118.92 41.8265C119.623 41.8265 120.326 41.598 121.029 41.141C121.768 40.684 122.4 40.016 122.928 39.1371C123.49 38.223 123.93 37.1508 124.246 35.9203C124.562 34.6898 124.721 33.389 124.721 32.0179C124.721 30.6469 124.562 29.3461 124.246 28.1156C123.93 26.85 123.49 25.7777 122.928 24.8988C122.4 24.0902 121.768 23.4398 121.029 22.9476C120.326 22.4554 119.623 22.2094 118.92 22.2094C118.182 22.2094 117.443 22.4379 116.705 22.8949C116.002 23.3519 115.387 24.0023 114.859 24.8461C114.297 25.725 113.84 26.7972 113.488 28.0629C113.172 29.3285 113.014 30.6469 113.014 32.0179ZM151.668 22.9476C150.086 22.9476 148.82 23.0707 147.871 23.3168C146.922 23.5629 146.025 23.932 145.182 24.4242C144.373 24.8812 143.617 25.5492 142.914 26.4281C142.246 27.307 141.807 28.3441 141.596 29.5394C141.314 31.016 141.174 32.6508 141.174 34.4437V46.0453H135.637V17.9906H141.174V21.8402C141.912 20.7855 142.861 19.8715 144.021 19.098C145.814 17.9379 148.363 17.3402 151.668 17.3051V22.9476ZM174.766 46.0453H169.176V43.5668C168.719 44.0238 168.139 44.4984 167.436 44.9906C166.557 45.5531 165.555 45.975 164.43 46.2562C163.305 46.5023 161.986 46.6254 160.475 46.6254C159.771 46.6254 158.928 46.4496 157.943 46.098C156.994 45.7465 156.186 45.2367 155.518 44.5687C154.744 43.9008 154.164 43.0922 153.777 42.1429C153.391 41.1937 153.197 40.1215 153.197 38.9261C153.197 36.7816 153.76 34.9183 154.885 33.3363C156.045 31.7543 157.451 30.682 159.104 30.1195C160.193 29.7328 161.336 29.4515 162.531 29.2758C163.727 29.1 164.729 29.0121 165.537 29.0121H169.176V27.1664C169.176 26.8851 169.105 26.4281 168.965 25.7953C168.859 25.1273 168.631 24.5297 168.279 24.0023C167.963 23.475 167.471 23.0355 166.803 22.684C166.135 22.3324 165.326 22.1566 164.377 22.1566C163.182 22.1566 162.145 22.4906 161.266 23.1586C160.422 23.7914 160 24.8812 160 26.4281H153.83C153.83 24.8812 154.023 23.6332 154.41 22.684C154.832 21.6996 155.5 20.8207 156.414 20.0472C157.293 19.2386 158.418 18.5883 159.789 18.0961C161.195 17.5687 162.725 17.3051 164.377 17.3051C167.752 17.3051 170.318 18.2543 172.076 20.1527C173.869 22.0511 174.766 24.3187 174.766 26.9554V46.0453ZM169.176 35.4984V33.5472C168.93 33.5472 168.314 33.5648 167.33 33.6C166.346 33.6 165.115 33.723 163.639 33.9691C162.443 34.1801 161.389 34.6195 160.475 35.2875C159.42 36.1664 158.893 37.2035 158.893 38.3988C158.893 39.6644 159.209 40.5609 159.842 41.0883C160.51 41.5804 161.336 41.8265 162.32 41.8265C162.707 41.8265 163.27 41.7386 164.008 41.5629C164.746 41.3871 165.396 41.1058 165.959 40.7191C167.154 39.9105 168.068 38.9261 168.701 37.766C169.018 37.2035 169.176 36.4476 169.176 35.4984ZM211.521 17.9906L205.035 46.0453H200.078L194.646 27.8519L189.268 46.0453H184.416L177.719 17.9906H183.203L187.158 36.184L192.484 17.9906H196.809L202.135 36.2367L206.195 17.9906H211.521Z" fill="#25262F"/>
</svg>
