<svg width="375" height="134" viewBox="0 0 375 134" fill="none" xmlns="http://www.w3.org/2000/svg">
<rect x="65" y="19.5" width="293" height="93" rx="20" fill="white"/>
<path d="M145 46.5L129.625 113H117.875L105 69.875L92.25 113H80.75L64.875 46.5H77.875L87.25 89.625L99.875 46.5H110.125L122.75 89.75L132.375 46.5H145ZM193 79.75C193 76.5 192.625 73.2917 191.875 70.125C191.125 66.9583 190.042 64.375 188.625 62.375C187.292 60.2083 185.667 58.625 183.75 57.625C181.833 56.625 179.875 56.125 177.875 56.125C175.875 56.125 173.917 56.625 172 57.625C170.083 58.625 168.417 60.2083 167 62.375C165.667 64.375 164.625 66.9583 163.875 70.125C163.125 73.2917 162.75 76.5 162.75 79.75C162.75 83 163.125 86.2083 163.875 89.375C164.625 92.4583 165.667 95 167 97C168.417 99.1667 170.083 100.75 172 101.75C173.917 102.667 175.875 103.125 177.875 103.125C179.875 103.125 181.833 102.667 183.75 101.75C185.667 100.75 187.292 99.1667 188.625 97C190.042 95 191.125 92.4583 191.875 89.375C192.625 86.2083 193 83 193 79.75ZM206.75 79.75C206.75 84.4167 206.083 88.9583 204.75 93.375C203.417 97.7083 201.5 101.458 199 104.625C196.333 107.792 193.125 110.208 189.375 111.875C185.708 113.542 181.875 114.375 177.875 114.375C173.875 114.375 170 113.542 166.25 111.875C162.583 110.208 159.417 107.792 156.75 104.625C154.25 101.458 152.333 97.7083 151 93.375C149.667 88.9583 149 84.4167 149 79.75C149 75.0833 149.667 70.5833 151 66.25C152.333 61.8333 154.25 58.0417 156.75 54.875C159.417 51.5417 162.583 49.0417 166.25 47.375C170 45.7083 173.875 44.875 177.875 44.875C181.875 44.875 185.708 45.7083 189.375 47.375C193.125 49.0417 196.333 51.5417 199 54.875C201.5 58.0417 203.417 61.8333 204.75 66.25C206.083 70.5833 206.75 75.0833 206.75 79.75ZM254.125 58.25C250.375 58.25 247.375 58.5417 245.125 59.125C242.875 59.7083 240.75 60.5833 238.75 61.75C236.833 62.8333 235.042 64.4167 233.375 66.5C231.792 68.5833 230.75 71.0417 230.25 73.875C229.583 77.375 229.25 81.25 229.25 85.5V113H216.125V46.5H229.25V55.625C231 53.125 233.25 50.9583 236 49.125C240.25 46.375 246.292 44.9583 254.125 44.875V58.25ZM314.625 113H297.875L274.125 85.5V113H260.875V19.75H274.125V69.125L296.75 46.5H314.375L283.25 76.375L314.625 113ZM361.625 94.75C361.625 97.6667 361.083 100.375 360 102.875C359 105.292 357.542 107.292 355.625 108.875C353.458 110.708 350.583 112.083 347 113C343.417 113.917 339.542 114.375 335.375 114.375C330.542 114.375 324.208 113.167 316.375 110.75V96.5C320.125 98.8333 323.583 100.5 326.75 101.5C330 102.417 332.875 102.875 335.375 102.875C339.542 102.875 342.583 102.375 344.5 101.375C347.083 99.875 348.375 97.875 348.375 95.375C348.375 93.7083 347.917 92.2917 347 91.125C346.083 89.9583 344.792 88.875 343.125 87.875C341.375 86.9583 338.958 85.875 335.875 84.625C332.875 83.375 329.917 82.0417 327 80.625C324.5 79.375 322.125 77.4167 319.875 74.75C317.708 72 316.625 68.4167 316.625 64C316.625 57.9167 318.75 53.2083 323 49.875C327.333 46.5417 332.875 44.875 339.625 44.875C345.208 44.875 351.333 46 358 48.25V61.75C354.667 59.8333 351.5 58.4167 348.5 57.5C345.5 56.5833 342.375 56.125 339.125 56.125C336.375 56.125 334.083 56.75 332.25 58C330.5 59.1667 329.625 60.8333 329.625 63C329.625 64.4167 329.875 65.625 330.375 66.625C330.958 67.5417 332 68.5 333.5 69.5C335 70.4167 337.5 71.5833 341 73C344.5 74.4167 347.583 75.7917 350.25 77.125C353.25 78.7083 355.875 80.9167 358.125 83.75C360.458 86.5833 361.625 90.25 361.625 94.75Z" fill="black"/>
<mask id="path-3-outside-1_20_110" maskUnits="userSpaceOnUse" x="0" y="15" width="48" height="98" fill="black">
<rect fill="color: #B1C0D1;" y="15" width="48" height="98"/>
<path d="M46.25 30.25C42.9167 29.4167 40.4167 28.8333 38.75 28.5C37.1667 28.0833 35.4583 27.875 33.625 27.875C31.7917 27.875 30.375 28.1667 29.375 28.75C28.375 29.25 27.4583 30.2083 26.625 31.625C26.125 32.625 25.75 33.8333 25.5 35.25C25.3333 36.6667 25.25 38.25 25.25 40V45H42V56.375H25.25V111.5H11.625V56.375H1.375V45H11.625V42C11.625 39.5833 11.75 36.9167 12 34C12.3333 31 13.2917 28.125 14.875 25.375C16.375 22.875 18.5417 20.7917 21.375 19.125C24.2083 17.4583 28.125 16.5833 33.125 16.5C35.5417 16.5 37.7083 16.7083 39.625 17.125C41.5417 17.4583 43.75 17.8333 46.25 18.25V30.25Z"/>
</mask>
<path d="M46.25 30.25C42.9167 29.4167 40.4167 28.8333 38.75 28.5C37.1667 28.0833 35.4583 27.875 33.625 27.875C31.7917 27.875 30.375 28.1667 29.375 28.75C28.375 29.25 27.4583 30.2083 26.625 31.625C26.125 32.625 25.75 33.8333 25.5 35.25C25.3333 36.6667 25.25 38.25 25.25 40V45H42V56.375H25.25V111.5H11.625V56.375H1.375V45H11.625V42C11.625 39.5833 11.75 36.9167 12 34C12.3333 31 13.2917 28.125 14.875 25.375C16.375 22.875 18.5417 20.7917 21.375 19.125C24.2083 17.4583 28.125 16.5833 33.125 16.5C35.5417 16.5 37.7083 16.7083 39.625 17.125C41.5417 17.4583 43.75 17.8333 46.25 18.25V30.25Z" fill="white"/>
<path d="M46.25 30.25L46.0075 31.2201L47.25 31.5308V30.25H46.25ZM38.75 28.5L38.4955 29.4671L38.5245 29.4747L38.5539 29.4806L38.75 28.5ZM29.375 28.75L29.8222 29.6444L29.851 29.63L29.8789 29.6138L29.375 28.75ZM26.625 31.625L25.7631 31.118L25.7458 31.1473L25.7306 31.1778L26.625 31.625ZM25.5 35.25L24.5152 35.0762L24.5102 35.1046L24.5068 35.1332L25.5 35.25ZM25.25 45H24.25V46H25.25V45ZM42 45H43V44H42V45ZM42 56.375V57.375H43V56.375H42ZM25.25 56.375V55.375H24.25V56.375H25.25ZM25.25 111.5V112.5H26.25V111.5H25.25ZM11.625 111.5H10.625V112.5H11.625V111.5ZM11.625 56.375H12.625V55.375H11.625V56.375ZM1.375 56.375H0.375V57.375H1.375V56.375ZM1.375 45V44H0.375V45H1.375ZM11.625 45V46H12.625V45H11.625ZM12 34L11.0061 33.8896L11.0047 33.9021L11.0037 33.9146L12 34ZM14.875 25.375L14.0175 24.8605L14.0129 24.8682L14.0084 24.876L14.875 25.375ZM33.125 16.5V15.5H33.1167L33.1083 15.5001L33.125 16.5ZM39.625 17.125L39.4126 18.1022L39.433 18.1066L39.4537 18.1102L39.625 17.125ZM46.25 18.25H47.25V17.4029L46.4144 17.2636L46.25 18.25ZM46.4925 29.2799C43.156 28.4457 40.6371 27.8576 38.9461 27.5194L38.5539 29.4806C40.1963 29.8091 42.6774 30.3876 46.0075 31.2201L46.4925 29.2799ZM39.0045 27.5329C37.3289 27.092 35.5341 26.875 33.625 26.875V28.875C35.3825 28.875 37.0045 29.0747 38.4955 29.4671L39.0045 27.5329ZM33.625 26.875C31.7083 26.875 30.0886 27.176 28.8711 27.8862L29.8789 29.6138C30.6614 29.1573 31.875 28.875 33.625 28.875V26.875ZM28.9278 27.8556C27.6918 28.4736 26.6509 29.6086 25.7631 31.118L27.4869 32.132C28.2657 30.808 29.0582 30.0264 29.8222 29.6444L28.9278 27.8556ZM25.7306 31.1778C25.1771 32.2847 24.7774 33.5902 24.5152 35.0762L26.4848 35.4238C26.7226 34.0764 27.0729 32.9653 27.5194 32.0722L25.7306 31.1778ZM24.5068 35.1332C24.3347 36.5961 24.25 38.2193 24.25 40H26.25C26.25 38.2807 26.3319 36.7372 26.4932 35.3668L24.5068 35.1332ZM24.25 40V45H26.25V40H24.25ZM25.25 46H42V44H25.25V46ZM41 45V56.375H43V45H41ZM42 55.375H25.25V57.375H42V55.375ZM24.25 56.375V111.5H26.25V56.375H24.25ZM25.25 110.5H11.625V112.5H25.25V110.5ZM12.625 111.5V56.375H10.625V111.5H12.625ZM11.625 55.375H1.375V57.375H11.625V55.375ZM2.375 56.375V45H0.375V56.375H2.375ZM1.375 46H11.625V44H1.375V46ZM12.625 45V42H10.625V45H12.625ZM12.625 42C12.625 39.617 12.7483 36.9794 12.9963 34.0854L11.0037 33.9146C10.7517 36.854 10.625 39.5496 10.625 42H12.625ZM12.9939 34.1104C13.3112 31.2543 14.2234 28.5108 15.7416 25.874L14.0084 24.876C12.3599 27.7392 11.3554 30.7457 11.0061 33.8896L12.9939 34.1104ZM15.7325 25.8895C17.1361 23.5502 19.1741 21.5798 21.882 19.9869L20.868 18.2631C17.9093 20.0035 15.6139 22.1998 14.0175 24.8605L15.7325 25.8895ZM21.882 19.9869C24.5086 18.4419 28.2316 17.5817 33.1417 17.4999L33.1083 15.5001C28.0184 15.585 23.9081 16.4748 20.868 18.2631L21.882 19.9869ZM33.125 17.5C35.486 17.5 37.5796 17.7037 39.4126 18.1022L39.8374 16.1478C37.8371 15.713 35.5973 15.5 33.125 15.5V17.5ZM39.4537 18.1102C41.3732 18.444 43.5839 18.8194 46.0856 19.2364L46.4144 17.2636C43.9161 16.8472 41.7101 16.4726 39.7963 16.1398L39.4537 18.1102ZM45.25 18.25V30.25H47.25V18.25H45.25Z" fill="white" mask="url(#path-3-outside-1_20_110)"/>
<path d="M53.625 112.625H37V95.375H53.625V112.625Z" fill="white"/>
</svg>
